<?xml version="1.0" encoding="UTF-8"?>
<!DOCTYPE svg PUBLIC "-//W3C//DTD SVG 1.1//EN" "http://www.w3.org/Graphics/SVG/1.1/DTD/svg11.dtd">
<svg xmlns="http://www.w3.org/2000/svg" version="1.1" width="78px" height="78px" style="shape-rendering:geometricPrecision; text-rendering:geometricPrecision; image-rendering:optimizeQuality; fill-rule:evenodd; clip-rule:evenodd" xmlns:xlink="http://www.w3.org/1999/xlink">
<g><path style="opacity:0.894" fill="#9f9f9f" d="M 40.5,-0.5 C 41.1667,-0.5 41.8333,-0.5 42.5,-0.5C 42.0269,0.906316 41.0269,1.57298 39.5,1.5C 39.8333,0.833333 40.1667,0.166667 40.5,-0.5 Z"/></g>
<g><path style="opacity:1" fill="#4b4744" d="M 42.5,-0.5 C 46.5,-0.5 50.5,-0.5 54.5,-0.5C 62.6684,5.6671 66.0017,14.0004 64.5,24.5C 64.4274,26.5896 64.094,28.5896 63.5,30.5C 62.791,31.404 61.791,31.7373 60.5,31.5C 58.7629,34.008 57.9296,37.008 58,40.5C 57.5348,41.9308 56.7014,43.0975 55.5,44C 57.4308,44.9022 59.0975,46.0688 60.5,47.5C 57.1694,47.9819 54.5027,46.9819 52.5,44.5C 54.3068,43.1638 55.8068,41.4971 57,39.5C 59.0307,29.2362 54.8641,25.4029 44.5,28C 43.0161,28.6622 41.6828,29.4955 40.5,30.5C 39.6644,35.5939 40.9978,39.9273 44.5,43.5C 43.5326,44.8062 42.1993,45.4729 40.5,45.5C 40.9175,44.7784 41.5842,44.2784 42.5,44C 40.5494,42.2658 39.5494,40.0991 39.5,37.5C 38.0222,37.238 36.6888,37.5713 35.5,38.5C 34.9661,40.6145 33.9661,42.4478 32.5,44C 33.4158,44.2784 34.0825,44.7784 34.5,45.5C 33.8826,45.6107 33.3826,45.944 33,46.5C 31.8904,44.9632 30.3904,44.2965 28.5,44.5C 30.8835,43.1149 32.5501,41.1149 33.5,38.5C 36.0129,31.2141 33.3462,27.5474 25.5,27.5C 23.6307,27.5068 21.964,27.8401 20.5,28.5C 18.0412,29.8738 17.0412,32.0405 17.5,35C 17.3021,38.6132 18.6355,41.4466 21.5,43.5C 20.7777,44.5511 19.7777,45.2178 18.5,45.5C 18.6107,44.8826 18.944,44.3826 19.5,44C 17.84,42.5123 16.84,40.679 16.5,38.5C 17.0102,35.6122 16.3435,33.2789 14.5,31.5C 13.209,31.7373 12.209,31.404 11.5,30.5C 10.5644,24.1811 10.731,17.8478 12,11.5C 13.5429,9.62173 15.3762,8.12173 17.5,7C 22.1547,7.16368 26.8214,7.16368 31.5,7C 34.0652,4.92048 36.7318,3.08715 39.5,1.5C 41.0269,1.57298 42.0269,0.906316 42.5,-0.5 Z"/></g>
<g><path style="opacity:1" fill="#df8e70" d="M 23.5,16.5 C 32.5246,16.1685 41.5246,16.5018 50.5,17.5C 54.383,18.8269 56.7163,21.4936 57.5,25.5C 52.9677,25.1818 48.6344,25.5151 44.5,26.5C 44.1667,26.5 43.8333,26.5 43.5,26.5C 41.1789,26.2289 39.1789,26.8955 37.5,28.5C 35.7786,26.6073 33.9453,24.9406 32,23.5C 27.2188,24.419 22.3855,24.7523 17.5,24.5C 17.5,23.1667 17.5,21.8333 17.5,20.5C 18.7079,17.9558 20.7079,16.6225 23.5,16.5 Z"/></g>
<g><path style="opacity:1" fill="#b8826f" d="M 23.5,16.5 C 32.6575,15.3424 41.9908,15.1757 51.5,16C 56.8495,17.5122 59.1828,21.0122 58.5,26.5C 53.8333,26.5 49.1667,26.5 44.5,26.5C 48.6344,25.5151 52.9677,25.1818 57.5,25.5C 56.7163,21.4936 54.383,18.8269 50.5,17.5C 41.5246,16.5018 32.5246,16.1685 23.5,16.5 Z"/></g>
<g><path style="opacity:1" fill="#cdd1cd" d="M 20.5,28.5 C 21.964,27.8401 23.6307,27.5068 25.5,27.5C 33.3462,27.5474 36.0129,31.2141 33.5,38.5C 33.1667,38.5 32.8333,38.5 32.5,38.5C 32.6633,36.1432 32.4966,33.8098 32,31.5C 30.8904,29.9632 29.3904,29.2965 27.5,29.5C 25.3926,28.5318 23.0593,28.1984 20.5,28.5 Z"/></g>
<g><path style="opacity:1" fill="#cf8a77" d="M 17.5,20.5 C 17.5,21.8333 17.5,23.1667 17.5,24.5C 22.3855,24.7523 27.2188,24.419 32,23.5C 33.9453,24.9406 35.7786,26.6073 37.5,28.5C 39.1789,26.8955 41.1789,26.2289 43.5,26.5C 41.7706,27.2362 40.7706,28.5695 40.5,30.5C 39.5655,31.5676 39.2322,32.901 39.5,34.5C 38.1667,34.5 36.8333,34.5 35.5,34.5C 36.2747,30.8184 34.9414,28.3184 31.5,27C 26.5111,26.5007 21.5111,26.3341 16.5,26.5C 16.2053,24.2646 16.5386,22.2646 17.5,20.5 Z"/></g>
<g><path style="opacity:1" fill="#ededec" d="M 52.5,44.5 C 49.7212,44.7214 47.0545,44.388 44.5,43.5C 40.9978,39.9273 39.6644,35.5939 40.5,30.5C 41.6828,29.4955 43.0161,28.6622 44.5,28C 54.8641,25.4029 59.0307,29.2362 57,39.5C 55.8068,41.4971 54.3068,43.1638 52.5,44.5 Z"/></g>
<g><path style="opacity:1" fill="#dba897" d="M 63.5,30.5 C 69.0759,30.9736 71.2426,33.9736 70,39.5C 68.4675,41.5624 66.4675,42.8957 64,43.5C 63.5065,45.1341 63.3398,46.8008 63.5,48.5C 62.8333,48.5 62.5,48.1667 62.5,47.5C 62.5,45.8333 62.5,44.1667 62.5,42.5C 63.8195,41.0582 65.4862,40.3915 67.5,40.5C 68.8333,34.5 66.5,32.1667 60.5,33.5C 60.7947,35.7354 60.4614,37.7354 59.5,39.5C 59.2786,36.7212 59.612,34.0545 60.5,31.5C 61.791,31.7373 62.791,31.404 63.5,30.5 Z"/></g>
<g><path style="opacity:1" fill="#8a5d4a" d="M 14.5,31.5 C 16.3435,33.2789 17.0102,35.6122 16.5,38.5C 15.7321,36.2854 15.0654,33.9521 14.5,31.5 Z"/></g>
<g><path style="opacity:1" fill="#3f3e40" d="M 45.5,30.5 C 47.1534,29.2006 48.6534,29.5339 50,31.5C 51.0037,34.9926 50.5037,38.1592 48.5,41C 43.6714,41.6678 41.6714,39.5011 42.5,34.5C 46.0348,34.6631 47.0348,33.3298 45.5,30.5 Z"/></g>
<g><path style="opacity:1" fill="#f6f6f6" d="M 20.5,28.5 C 23.0593,28.1984 25.3926,28.5318 27.5,29.5C 28.8598,31.8015 28.1932,33.4682 25.5,34.5C 23.6808,38.1085 24.6808,40.4418 28.5,41.5C 30.4172,41.2462 31.7505,40.2462 32.5,38.5C 32.8333,38.5 33.1667,38.5 33.5,38.5C 32.5501,41.1149 30.8835,43.1149 28.5,44.5C 26.0504,44.702 23.717,44.3686 21.5,43.5C 18.6355,41.4466 17.3021,38.6132 17.5,35C 17.0412,32.0405 18.0412,29.8738 20.5,28.5 Z"/></g>
<g><path style="opacity:1" fill="#3f3e3e" d="M 27.5,29.5 C 29.3904,29.2965 30.8904,29.9632 32,31.5C 32.4966,33.8098 32.6633,36.1432 32.5,38.5C 31.7505,40.2462 30.4172,41.2462 28.5,41.5C 24.6808,40.4418 23.6808,38.1085 25.5,34.5C 28.1932,33.4682 28.8598,31.8015 27.5,29.5 Z"/></g>
<g><path style="opacity:1" fill="#e18d6e" d="M 62.5,42.5 C 61.5326,43.8062 60.1993,44.4729 58.5,44.5C 58.6287,42.7839 58.962,41.1172 59.5,39.5C 60.4614,37.7354 60.7947,35.7354 60.5,33.5C 66.5,32.1667 68.8333,34.5 67.5,40.5C 65.4862,40.3915 63.8195,41.0582 62.5,42.5 Z"/></g>
<g><path style="opacity:1" fill="#e0bcae" d="M 6.5,32.5 C 6.17905,33.8175 5.84572,35.1508 5.5,36.5C 7.1878,38.8545 9.1878,40.8545 11.5,42.5C 6.99414,42.9923 4.66081,40.9923 4.5,36.5C 4.34024,34.6455 5.00691,33.3121 6.5,32.5 Z"/></g>
<g><path style="opacity:1" fill="#da9278" d="M 11.5,30.5 C 12.209,31.404 13.209,31.7373 14.5,31.5C 15.0654,33.9521 15.7321,36.2854 16.5,38.5C 16.84,40.679 17.84,42.5123 19.5,44C 18.944,44.3826 18.6107,44.8826 18.5,45.5C 15.7052,46.063 13.3718,47.3963 11.5,49.5C 11.5,47.1667 11.5,44.8333 11.5,42.5C 9.1878,40.8545 7.1878,38.8545 5.5,36.5C 5.84572,35.1508 6.17905,33.8175 6.5,32.5C 7.78041,31.0687 9.44708,30.4021 11.5,30.5 Z"/></g>
<g><path style="opacity:1" fill="#d48e77" d="M 40.5,45.5 C 38.5,48.1667 36.5,48.1667 34.5,45.5C 34.0825,44.7784 33.4158,44.2784 32.5,44C 33.9661,42.4478 34.9661,40.6145 35.5,38.5C 36.6888,37.5713 38.0222,37.238 39.5,37.5C 39.5494,40.0991 40.5494,42.2658 42.5,44C 41.5842,44.2784 40.9175,44.7784 40.5,45.5 Z"/></g>
<g><path style="opacity:1" fill="#b88272" d="M 60.5,31.5 C 59.612,34.0545 59.2786,36.7212 59.5,39.5C 58.962,41.1172 58.6287,42.7839 58.5,44.5C 60.1993,44.4729 61.5326,43.8062 62.5,42.5C 62.5,44.1667 62.5,45.8333 62.5,47.5C 61.8333,47.5 61.1667,47.5 60.5,47.5C 59.0975,46.0688 57.4308,44.9022 55.5,44C 56.7014,43.0975 57.5348,41.9308 58,40.5C 57.9296,37.008 58.7629,34.008 60.5,31.5 Z"/></g>
<g><path style="opacity:1" fill="#454544" d="M 21.5,43.5 C 23.717,44.3686 26.0504,44.702 28.5,44.5C 30.3904,44.2965 31.8904,44.9632 33,46.5C 33.3826,45.944 33.8826,45.6107 34.5,45.5C 36.5,48.1667 38.5,48.1667 40.5,45.5C 42.1993,45.4729 43.5326,44.8062 44.5,43.5C 47.0545,44.388 49.7212,44.7214 52.5,44.5C 54.5027,46.9819 57.1694,47.9819 60.5,47.5C 61.1667,47.5 61.8333,47.5 62.5,47.5C 62.5,48.1667 62.8333,48.5 63.5,48.5C 68.8247,55.2059 68.8247,61.8726 63.5,68.5C 61.7697,69.0256 60.4363,70.0256 59.5,71.5C 58.5,71.5 57.5,71.5 56.5,71.5C 44.1622,71.6665 31.8288,71.4999 19.5,71C 17.3476,69.5873 15.0143,68.7539 12.5,68.5C 12.5,67.1667 11.8333,66.5 10.5,66.5C 7.59159,60.5991 7.92492,54.9325 11.5,49.5C 13.3718,47.3963 15.7052,46.063 18.5,45.5C 19.7777,45.2178 20.7777,44.5511 21.5,43.5 Z"/></g>
<g><path style="opacity:1" fill="#36505e" d="M 12.5,68.5 C 15.0143,68.7539 17.3476,69.5873 19.5,71C 31.8288,71.4999 44.1622,71.6665 56.5,71.5C 43.6732,72.6602 30.6732,72.8269 17.5,72C 15.6536,70.9702 13.9869,69.8036 12.5,68.5 Z"/></g>
<g><path style="opacity:1" fill="#4aa0ca" d="M 10.5,66.5 C 11.8333,66.5 12.5,67.1667 12.5,68.5C 13.9869,69.8036 15.6536,70.9702 17.5,72C 30.6732,72.8269 43.6732,72.6602 56.5,71.5C 57.5,71.5 58.5,71.5 59.5,71.5C 64.3963,70.7846 67.3963,72.7846 68.5,77.5C 46.5,77.5 24.5,77.5 2.5,77.5C 4.83375,74.3338 7.66708,71.6671 11,69.5C 11.4696,68.4232 11.3029,67.4232 10.5,66.5 Z"/></g>
<g><path style="opacity:1" fill="#76afc5" d="M 63.5,68.5 C 66.8062,71.1395 69.8062,74.1395 72.5,77.5C 71.1667,77.5 69.8333,77.5 68.5,77.5C 67.3963,72.7846 64.3963,70.7846 59.5,71.5C 60.4363,70.0256 61.7697,69.0256 63.5,68.5 Z"/></g>
</svg>
